# xmcd
#
# Track frame offsets: 
#        150
#        16343
#        32390
#        50244
#        63918
#        79118
#        92328
#        107773
#        124723
#        143115
#
# Disc length: 2106 seconds
#
# Revision: 1
# Processed by: cddbd v1.5.2PL0 Copyright (c) Steve Scherf et al.
# Submitted via: ExactAudioCopy v0.90b4
#
DISCID=7808380a
DTITLE=Various Artist - OLON Single Top 100 Volume 375 - Deel 2
DYEAR=2007
DGENRE=Pop
TTITLE0=Jan Smit and John Denver - Calypso
TTITLE1=Nick and Simon - Pak Maar M'n Hand
TTITLE2=Jeroen Van Der Boom - …Èn Wereld
TTITLE3=The 925s - Wake Up
TTITLE4=Nou En - Roos
TTITLE5=John Enter - Daar Komt Oma
TTITLE6=Peter Dons - Kijk Me Hier Staan
TTITLE7=Kevin Florijn - Wijs Me De Weg Naar Jouw Hart
TTITLE8=Mike Peterson - Jij Luistert Naar Mij
TTITLE9=Peter Koelewijn - Mamma
EXTD=OLON 375-2
EXTT0=
EXTT1=
EXTT2=
EXTT3=
EXTT4=
EXTT5=
EXTT6=
EXTT7=
EXTT8=
EXTT9=
PLAYORDER=
